<?xml version="1.0" encoding="utf-8"?><!-- Uploaded to: SVG Repo, www.svgrepo.com, Generator: SVG Repo Mixer Tools -->
<svg fill="#000000" width="800px" height="800px" viewBox="0 0 24 24" id="donation" data-name="Flat Line" xmlns="http://www.w3.org/2000/svg" class="icon flat-line"><path id="secondary" d="M16.46,13A5.93,5.93,0,0,0,18,9,6,6,0,0,0,6,9a5.93,5.93,0,0,0,1.54,4Z" style="fill: rgb(44, 169, 188); stroke-width: 2;"></path><path id="primary" d="M7.54,13A5.93,5.93,0,0,1,6,9,6,6,0,0,1,18,9a5.93,5.93,0,0,1-1.54,4ZM20,20V13H4v7a1,1,0,0,0,1,1H19A1,1,0,0,0,20,20Zm-1,1H5a1,1,0,0,1-1-1V13H20v7A1,1,0,0,1,19,21ZM3,13H21M9,17h6" style="fill: none; stroke: rgb(0, 0, 0); stroke-linecap: round; stroke-linejoin: round; stroke-width: 2;"></path></svg>